<svg width="160" height="49" viewBox="0 0 160 49" fill="none" xmlns="http://www.w3.org/2000/svg">
<path d="M11.2941 26.4336C11.2941 29.2938 12.7119 31.8224 14.8829 33.3558C16.4013 34.4283 17.7479 35.9695 17.7479 37.8285V46.0963C7.77952 45.086 0 36.6685 0 26.4336V0.215147H7.26051C9.48821 0.215147 11.2941 2.02106 11.2941 4.24876V26.4336Z" fill="#133A66"/>
<path d="M39.5294 26.4336C39.5294 36.6685 31.7499 45.086 21.7815 46.0963V37.8285C21.7815 35.9695 23.1281 34.4283 24.6466 33.3558C26.8176 31.8224 28.2353 29.2938 28.2353 26.4336V4.24876C28.2353 2.02105 30.0412 0.215147 32.2689 0.215147H39.5294V26.4336Z" fill="#235D9F"/>
<path d="M25.4118 26.0303C25.4118 29.1491 22.8835 31.6773 19.7647 31.6773C16.6459 31.6773 14.1176 29.1491 14.1176 26.0303C14.1176 22.9115 19.7647 16.3496 19.7647 16.3496C19.7647 16.3496 25.4118 22.9115 25.4118 26.0303Z" fill="#139BD7"/>
<path d="M68.6877 26.2151H55.0296V21.8815H68.6877V26.2151ZM56.7169 26.2151H51.3175V0.355219H56.7169V26.2151ZM66.8939 15.0258H55.0296V10.8164H66.8939V15.0258ZM68.6344 4.70665H55.0296V0.355219H68.6344V4.70665ZM81.1914 26.5704C79.9008 26.5704 78.6339 26.4046 77.3906 26.0731C76.1473 25.7297 75.0225 25.2087 74.016 24.5101C73.0214 23.8115 72.2222 22.9294 71.6183 21.8637C71.0263 20.7862 70.7302 19.5193 70.7302 18.0629H76.1118C76.1118 18.8444 76.2302 19.5074 76.467 20.0521C76.7038 20.5849 77.0472 21.023 77.4972 21.3664C77.9471 21.6979 78.4858 21.9407 79.1134 22.0946C79.741 22.2485 80.4336 22.3255 81.1914 22.3255C82.1032 22.3255 82.855 22.2012 83.4471 21.9525C84.0391 21.692 84.4772 21.3427 84.7614 20.9046C85.0456 20.4665 85.1876 19.9751 85.1876 19.4305C85.1876 18.8266 85.0574 18.3056 84.7969 17.8675C84.5482 17.4176 84.0628 16.9972 83.3405 16.6065C82.6182 16.2157 81.5585 15.8013 80.1613 15.3632C78.9772 14.9843 77.8642 14.5581 76.8222 14.0844C75.7803 13.599 74.8626 13.0424 74.0693 12.4149C73.276 11.7755 72.6484 11.0295 72.1866 10.177C71.7367 9.32449 71.5117 8.34172 71.5117 7.2287C71.5117 5.77231 71.9202 4.50536 72.7372 3.42786C73.5542 2.35036 74.6791 1.50968 76.1118 0.905808C77.5445 0.301936 79.1963 -2.68221e-07 81.0671 -2.68221e-07C82.9853 -2.68221e-07 84.6548 0.343378 86.0757 1.03013C87.4966 1.70505 88.5977 2.64638 89.3792 3.85412C90.1725 5.05003 90.5692 6.42354 90.5692 7.97466H85.2054C85.2054 7.25238 85.0515 6.61299 84.7436 6.05648C84.4476 5.49997 83.9858 5.06187 83.3583 4.74217C82.7307 4.42247 81.9374 4.26263 80.9783 4.26263C80.0547 4.26263 79.2851 4.39879 78.6694 4.67113C78.0655 4.94346 77.6156 5.3046 77.3195 5.75454C77.0235 6.19265 76.8755 6.69587 76.8755 7.26422C76.8755 7.82073 77.0709 8.31804 77.4616 8.75614C77.8642 9.18241 78.4444 9.57907 79.2022 9.94613C79.96 10.3013 80.8895 10.6447 81.9907 10.9763C83.8733 11.5565 85.4481 12.2254 86.7151 12.9832C87.9939 13.741 88.953 14.6409 89.5924 15.6829C90.2436 16.7249 90.5692 17.9622 90.5692 19.3949C90.5692 20.8987 90.1844 22.1893 89.4147 23.2668C88.6451 24.3325 87.5558 25.1495 86.1467 25.7178C84.7377 26.2862 83.0859 26.5704 81.1914 26.5704ZM103.57 26.5704C102.28 26.5704 101.013 26.4046 99.7694 26.0731C98.5261 25.7297 97.4012 25.2087 96.3948 24.5101C95.4002 23.8115 94.6009 22.9294 93.9971 21.8637C93.405 20.7862 93.109 19.5193 93.109 18.0629H98.4906C98.4906 18.8444 98.609 19.5074 98.8458 20.0521C99.0826 20.5849 99.426 21.023 99.8759 21.3664C100.326 21.6979 100.865 21.9407 101.492 22.0946C102.12 22.2485 102.812 22.3255 103.57 22.3255C104.482 22.3255 105.234 22.2012 105.826 21.9525C106.418 21.692 106.856 21.3427 107.14 20.9046C107.424 20.4665 107.566 19.9751 107.566 19.4305C107.566 18.8266 107.436 18.3056 107.176 17.8675C106.927 17.4176 106.442 16.9972 105.719 16.6065C104.997 16.2157 103.937 15.8013 102.54 15.3632C101.356 14.9843 100.243 14.5581 99.201 14.0844C98.159 13.599 97.2414 13.0424 96.4481 12.4149C95.6548 11.7755 95.0272 11.0295 94.5654 10.177C94.1155 9.32449 93.8905 8.34172 93.8905 7.2287C93.8905 5.77231 94.299 4.50536 95.116 3.42786C95.933 2.35036 97.0579 1.50968 98.4906 0.905808C99.9233 0.301936 101.575 -2.68221e-07 103.446 -2.68221e-07C105.364 -2.68221e-07 107.034 0.343378 108.454 1.03013C109.875 1.70505 110.977 2.64638 111.758 3.85412C112.551 5.05003 112.948 6.42354 112.948 7.97466H107.584C107.584 7.25238 107.43 6.61299 107.122 6.05648C106.826 5.49997 106.365 5.06187 105.737 4.74217C105.109 4.42247 104.316 4.26263 103.357 4.26263C102.434 4.26263 101.664 4.39879 101.048 4.67113C100.444 4.94346 99.9943 5.3046 99.6983 5.75454C99.4023 6.19265 99.2543 6.69587 99.2543 7.26422C99.2543 7.82073 99.4497 8.31804 99.8404 8.75614C100.243 9.18241 100.823 9.57907 101.581 9.94613C102.339 10.3013 103.268 10.6447 104.369 10.9763C106.252 11.5565 107.827 12.2254 109.094 12.9832C110.373 13.741 111.332 14.6409 111.971 15.6829C112.622 16.7249 112.948 17.9622 112.948 19.3949C112.948 20.8987 112.563 22.1893 111.794 23.2668C111.024 24.3325 109.935 25.1495 108.526 25.7178C107.116 26.2862 105.465 26.5704 103.57 26.5704ZM133.906 26.2151H120.248V21.8815H133.906V26.2151ZM121.935 26.2151H116.536V0.355219H121.935V26.2151ZM132.112 15.0258H120.248V10.8164H132.112V15.0258ZM133.853 4.70665H120.248V0.355219H133.853V4.70665ZM158.061 26.2151H152.697L142.378 9.23569V26.2151H136.996V0.355219H142.378L152.715 17.3524V0.355219H158.061V26.2151Z" fill="#303C42"/>
<path d="M63.9378 30.5227V40.9013C63.9378 42.1194 63.6748 43.1428 63.1486 43.9716C62.6297 44.8005 61.9162 45.4275 61.008 45.8528C60.0999 46.2708 59.0657 46.4798 57.9053 46.4798C56.7305 46.4798 55.6854 46.2708 54.7701 45.8528C53.862 45.4275 53.1484 44.8005 52.6295 43.9716C52.1106 43.1428 51.8511 42.1194 51.8511 40.9013V30.5227H55.1268V40.9013C55.1268 41.586 55.2386 42.1482 55.462 42.5878C55.6854 43.0203 56.0025 43.3374 56.4134 43.5392C56.8314 43.741 57.3287 43.8419 57.9053 43.8419C58.4891 43.8419 58.9864 43.741 59.3972 43.5392C59.808 43.3374 60.1215 43.0203 60.3378 42.5878C60.554 42.1482 60.6621 41.586 60.6621 40.9013V30.5227H63.9378ZM72.4461 30.5227C73.6569 30.5227 74.6948 30.7065 75.5597 31.0741C76.4317 31.4345 77.102 31.9678 77.5705 32.6741C78.039 33.3732 78.2732 34.2417 78.2732 35.2796C78.2732 36.1301 78.1291 36.858 77.8408 37.4634C77.5597 38.0616 77.1597 38.5625 76.6408 38.9661C76.129 39.3625 75.5236 39.6833 74.8245 39.9283L73.7866 40.5013H68.7595V37.8634H72.4461C73.0083 37.8634 73.4767 37.7661 73.8515 37.5715C74.2335 37.3769 74.5182 37.1066 74.7056 36.7607C74.9002 36.4075 74.9975 35.9967 74.9975 35.5282C74.9975 34.8003 74.7885 34.2273 74.3704 33.8093C73.9524 33.3841 73.311 33.1714 72.4461 33.1714H69.8623V46.2636H66.5865V30.5227H72.4461ZM71.7758 39.2364H75.2353L78.857 46.1122V46.2636H75.3542L71.7758 39.2364ZM93.6681 38.7391C93.6681 40.3463 93.387 41.7266 92.8248 42.8797C92.2627 44.0329 91.4771 44.923 90.468 45.55C89.4662 46.1699 88.3022 46.4798 86.9761 46.4798C85.6643 46.4798 84.5004 46.1699 83.4841 45.55C82.4751 44.923 81.6823 44.0329 81.1057 42.8797C80.5363 41.7266 80.2516 40.3463 80.2516 38.7391V38.058C80.2516 36.4508 80.5363 35.0706 81.1057 33.9174C81.6751 32.757 82.4643 31.8669 83.4733 31.2471C84.4823 30.62 85.6427 30.3065 86.9545 30.3065C88.2806 30.3065 89.4482 30.62 90.4572 31.2471C91.4662 31.8669 92.2518 32.757 92.814 33.9174C93.3834 35.0706 93.6681 36.4508 93.6681 38.058V38.7391ZM90.3707 38.0364C90.3707 36.9409 90.2374 36.0183 89.9707 35.2688C89.7041 34.5192 89.3149 33.9534 88.8031 33.5714C88.2914 33.1895 87.6752 32.9985 86.9545 32.9985C86.2337 32.9985 85.6211 33.1895 85.1166 33.5714C84.6121 33.9534 84.2265 34.5192 83.9598 35.2688C83.6931 36.0183 83.5598 36.9409 83.5598 38.0364V38.7391C83.5598 39.8274 83.6931 40.75 83.9598 41.5067C84.2337 42.2563 84.6229 42.8257 85.1274 43.2149C85.6391 43.6041 86.2553 43.7987 86.9761 43.7987C87.704 43.7987 88.3202 43.6041 88.8248 43.2149C89.3293 42.8257 89.7113 42.2563 89.9707 41.5067C90.2374 40.75 90.3707 39.8274 90.3707 38.7391V38.0364ZM106.176 46.2636H98.2844V43.6257H106.176V46.2636ZM99.3006 46.2636H96.0249V30.5227H99.3006V46.2636ZM120.22 38.7391C120.22 40.3463 119.939 41.7266 119.377 42.8797C118.814 44.0329 118.029 44.923 117.02 45.55C116.018 46.1699 114.854 46.4798 113.528 46.4798C112.216 46.4798 111.052 46.1699 110.036 45.55C109.027 44.923 108.234 44.0329 107.658 42.8797C107.088 41.7266 106.803 40.3463 106.803 38.7391V38.058C106.803 36.4508 107.088 35.0706 107.658 33.9174C108.227 32.757 109.016 31.8669 110.025 31.2471C111.034 30.62 112.195 30.3065 113.506 30.3065C114.832 30.3065 116 30.62 117.009 31.2471C118.018 31.8669 118.804 32.757 119.366 33.9174C119.935 35.0706 120.22 36.4508 120.22 38.058V38.7391ZM116.923 38.0364C116.923 36.9409 116.789 36.0183 116.523 35.2688C116.256 34.5192 115.867 33.9534 115.355 33.5714C114.843 33.1895 114.227 32.9985 113.506 32.9985C112.786 32.9985 112.173 33.1895 111.668 33.5714C111.164 33.9534 110.778 34.5192 110.512 35.2688C110.245 36.0183 110.112 36.9409 110.112 38.0364V38.7391C110.112 39.8274 110.245 40.75 110.512 41.5067C110.786 42.2563 111.175 42.8257 111.679 43.2149C112.191 43.6041 112.807 43.7987 113.528 43.7987C114.256 43.7987 114.872 43.6041 115.377 43.2149C115.881 42.8257 116.263 42.2563 116.523 41.5067C116.789 40.75 116.923 39.8274 116.923 38.7391V38.0364ZM135.053 44.2743C134.808 44.5626 134.433 44.8798 133.928 45.2257C133.424 45.5717 132.768 45.8672 131.961 46.1122C131.161 46.3573 130.184 46.4798 129.031 46.4798C127.669 46.4798 126.476 46.1843 125.452 45.5933C124.429 44.9951 123.629 44.1302 123.052 42.9986C122.483 41.8599 122.198 40.4797 122.198 38.858V37.9391C122.198 36.3102 122.469 34.93 123.009 33.7985C123.557 32.6597 124.324 31.7912 125.312 31.193C126.307 30.5948 127.471 30.2957 128.804 30.2957C130.166 30.2957 131.287 30.5191 132.166 30.966C133.045 31.4129 133.716 32.0327 134.177 32.8255C134.645 33.6111 134.937 34.512 135.053 35.5282H131.874C131.795 35.0021 131.644 34.5444 131.42 34.1552C131.197 33.766 130.88 33.4669 130.469 33.2579C130.065 33.0417 129.539 32.9336 128.89 32.9336C128.155 32.9336 127.535 33.121 127.031 33.4958C126.534 33.8706 126.155 34.4291 125.896 35.1715C125.636 35.9066 125.507 36.822 125.507 37.9175V38.858C125.507 39.9463 125.647 40.8617 125.928 41.604C126.216 42.3464 126.634 42.905 127.182 43.2797C127.73 43.6545 128.404 43.8419 129.204 43.8419C129.723 43.8419 130.152 43.8023 130.49 43.723C130.829 43.6365 131.099 43.5356 131.301 43.4203C131.51 43.305 131.672 43.1896 131.788 43.0743V40.3716H128.858V37.9823H135.053V44.2743ZM141.15 46.2636H137.885V30.5227H141.15V46.2636ZM154.729 46.2636H146.415V43.6257H154.729V46.2636ZM147.442 46.2636H144.155V30.5227H147.442V46.2636ZM153.637 39.4526H146.415V36.8904H153.637V39.4526ZM154.696 33.1714H146.415V30.5227H154.696V33.1714Z" fill="#235D9F"/>
</svg>
