<svg width="98" height="114" viewBox="0 0 98 114" fill="none" xmlns="http://www.w3.org/2000/svg">
<path d="M28 65C28 72.0909 31.5148 78.3597 36.8971 82.1613C40.6615 84.8202 44 88.6409 44 93.2497V113.747C19.2867 111.242 0 90.374 0 65V0H18C23.5228 0 28 4.47715 28 10V65Z" fill="#133A66"/>
<path d="M98 65C98 90.374 78.7133 111.242 54 113.747V93.2497C54 88.6409 57.3385 84.8202 61.1029 82.1613C66.4852 78.3597 70 72.0909 70 65V10C70 4.47715 74.4772 0 80 0H98V65Z" fill="#235D9F"/>
<path d="M63 64C63 71.732 56.732 78 49 78C41.268 78 35 71.732 35 64C35 56.268 49 40 49 40C49 40 63 56.268 63 64Z" fill="#139BD7"/>
</svg>
