<svg width="120" height="120" viewBox="0 0 120 120" fill="none" xmlns="http://www.w3.org/2000/svg">
<rect width="120" height="120" rx="10" fill="#139BD7"/>
<circle cx="59" cy="61" r="37" stroke="white" stroke-width="2"/>
<mask id="path-3-outside-1_92_2191" maskUnits="userSpaceOnUse" x="38" y="17" width="41" height="88" fill="black">
<rect fill="white" x="38" y="17" width="41" height="88"/>
<path d="M40 93.915C45.5894 97.1485 52.0783 99 59 99C65.5127 99 71.6423 97.3607 77 94.4736V98.9551C71.5442 101.547 65.4421 103 59 103C52.1616 103 45.7057 101.364 40 98.4648V93.915ZM59 19C65.4419 19 71.5443 20.4521 77 23.0439V27.5254C71.6424 24.6384 65.5126 23 59 23C52.0785 23 45.5893 24.8507 40 28.084V23.5342C45.7056 20.635 52.1618 19 59 19Z"/>
</mask>
<path d="M40 93.915L41.0015 92.1838L38 90.4475V93.915H40ZM77 94.4736H79V91.124L76.0512 92.713L77 94.4736ZM77 98.9551L77.8582 100.762L79 100.219V98.9551H77ZM40 98.4648H38V99.6919L39.094 100.248L40 98.4648ZM77 23.0439H79V21.7799L77.8582 21.2374L77 23.0439ZM77 27.5254L76.0513 29.286L79 30.875V27.5254H77ZM40 28.084H38V31.5515L41.0015 29.8152L40 28.084ZM40 23.5342L39.094 21.7512L38 22.3071V23.5342H40ZM40 93.915L38.9985 95.6462C44.884 99.0509 51.7171 101 59 101V99V97C52.4395 97 46.2949 95.246 41.0015 92.1838L40 93.915ZM59 99V101C65.8522 101 72.3069 99.2745 77.9488 96.2343L77 94.4736L76.0512 92.713C70.9777 95.447 65.1732 97 59 97V99ZM77 94.4736H75V98.9551H77H79V94.4736H77ZM77 98.9551L76.1418 97.1486C70.9479 99.6161 65.1383 101 59 101V103V105C65.7458 105 72.1405 103.478 77.8582 100.762L77 98.9551ZM59 103V101C52.484 101 46.3378 99.442 40.906 96.6818L40 98.4648L39.094 100.248C45.0736 103.286 51.8392 105 59 105V103ZM40 98.4648H42V93.915H40H38V98.4648H40ZM59 19V21C65.1384 21 70.9481 22.3831 76.1418 24.8504L77 23.0439L77.8582 21.2374C72.1404 18.521 65.7454 17 59 17V19ZM77 23.0439H75V27.5254H77H79V23.0439H77ZM77 27.5254L77.9487 25.7647C72.3068 22.7246 65.8519 21 59 21V23V25C65.1732 25 70.978 26.5523 76.0513 29.286L77 27.5254ZM59 23V21C51.7175 21 44.884 22.9482 38.9985 26.3528L40 28.084L41.0015 29.8152C46.2946 26.7532 52.4395 25 59 25V23ZM40 28.084H42V23.5342H40H38V28.084H40ZM40 23.5342L40.906 25.3172C46.3375 22.5573 52.484 21 59 21V19V17C51.8395 17 45.0737 18.7127 39.094 21.7512L40 23.5342Z" fill="white" mask="url(#path-3-outside-1_92_2191)"/>
<circle cx="59" cy="61" r="31.5" stroke="white"/>
<circle cx="59" cy="61" r="4.5" transform="rotate(135 59 61)" stroke="white"/>
<circle cx="42.0294" cy="44.0294" r="4.5" transform="rotate(45 42.0294 44.0294)" stroke="white"/>
<circle cx="75.9706" cy="77.9706" r="4.5" transform="rotate(45 75.9706 77.9706)" stroke="white"/>
<circle cx="75.9706" cy="44.0294" r="4.5" transform="rotate(135 75.9706 44.0294)" stroke="white"/>
<circle cx="42.0294" cy="77.9706" r="4.5" transform="rotate(135 42.0294 77.9706)" stroke="white"/>
<circle cx="59" cy="44" r="9.5" stroke="white"/>
<circle cx="59" cy="78" r="9.5" stroke="white"/>
<circle cx="76" cy="61" r="9.5" transform="rotate(90 76 61)" stroke="white"/>
<circle cx="42" cy="61" r="9.5" transform="rotate(90 42 61)" stroke="white"/>
<path d="M102.551 64.7812L102.55 64.7822L102.552 64.7783L102.553 64.7773C102.552 64.7791 102.551 64.7804 102.551 64.7812ZM102.645 57.5C102.678 57.6169 102.72 57.7724 102.76 57.9727C102.877 58.5603 103 59.5273 103 61C103 62.4727 102.877 63.4397 102.76 64.0273C102.72 64.2276 102.678 64.3831 102.645 64.5H96.5V57.5H102.645ZM102.551 57.2188C102.551 57.2196 102.552 57.2209 102.553 57.2227L102.552 57.2217L102.55 57.2178L102.551 57.2188Z" stroke="white"/>
<mask id="path-16-outside-2_92_2191" maskUnits="userSpaceOnUse" x="101.41" y="58" width="6" height="6" fill="black">
<rect fill="white" x="101.41" y="58" width="6" height="6"/>
<path d="M105 59C105 59 105.5 59.5 105.5 61C105.5 62.5 105 63 105 63H103.41C103.463 62.4641 103.5 61.8039 103.5 61C103.5 60.1961 103.463 59.5359 103.41 59H105Z"/>
</mask>
<path d="M105 59L105.707 58.2929L105.414 58H105V59ZM105 63V64H105.414L105.707 63.7071L105 63ZM103.41 63L102.415 62.9024L102.307 64H103.41V63ZM103.41 59V58H102.307L102.415 59.0976L103.41 59ZM105 59C104.293 59.7071 104.292 59.7066 104.292 59.7061C104.292 59.7059 104.291 59.7054 104.291 59.7051C104.29 59.7044 104.29 59.7037 104.289 59.703C104.288 59.7017 104.286 59.7004 104.285 59.6991C104.282 59.6965 104.28 59.6941 104.278 59.6917C104.273 59.6869 104.269 59.6826 104.266 59.6787C104.259 59.6708 104.253 59.6646 104.25 59.6601C104.242 59.6512 104.242 59.6496 104.246 59.6563C104.255 59.6692 104.285 59.7172 104.322 59.8089C104.394 59.9905 104.5 60.3627 104.5 61H105.5H106.5C106.5 60.1373 106.356 59.5095 106.178 59.0661C106.09 58.8453 105.995 58.6745 105.91 58.5469C105.868 58.4832 105.828 58.4308 105.793 58.3887C105.776 58.3677 105.76 58.3492 105.746 58.3333C105.738 58.3253 105.731 58.318 105.725 58.3113C105.722 58.3079 105.719 58.3047 105.716 58.3016C105.714 58.3001 105.713 58.2986 105.711 58.2971C105.711 58.2964 105.71 58.2957 105.709 58.295C105.709 58.2946 105.708 58.2941 105.708 58.2939C105.708 58.2934 105.707 58.2929 105 59ZM105.5 61H104.5C104.5 61.6373 104.394 62.0095 104.322 62.1911C104.285 62.2828 104.255 62.3308 104.246 62.3437C104.242 62.3504 104.242 62.3488 104.25 62.3399C104.253 62.3354 104.259 62.3292 104.266 62.3213C104.269 62.3174 104.273 62.3131 104.278 62.3083C104.28 62.3059 104.282 62.3035 104.285 62.3009C104.286 62.2996 104.288 62.2983 104.289 62.297C104.29 62.2963 104.29 62.2956 104.291 62.2949C104.291 62.2946 104.292 62.2941 104.292 62.2939C104.292 62.2934 104.293 62.2929 105 63C105.707 63.7071 105.708 63.7066 105.708 63.7061C105.708 63.7059 105.709 63.7054 105.709 63.705C105.71 63.7043 105.711 63.7036 105.711 63.7029C105.713 63.7014 105.714 63.6999 105.716 63.6984C105.719 63.6953 105.722 63.6921 105.725 63.6887C105.731 63.682 105.738 63.6747 105.746 63.6667C105.76 63.6508 105.776 63.6323 105.793 63.6113C105.828 63.5692 105.868 63.5168 105.91 63.4531C105.995 63.3255 106.09 63.1547 106.178 62.9339C106.356 62.4905 106.5 61.8627 106.5 61H105.5ZM105 63V62H103.41V63V64H105V63ZM103.41 63L104.405 63.0976C104.461 62.5278 104.5 61.835 104.5 61H103.5H102.5C102.5 61.7729 102.464 62.4004 102.415 62.9024L103.41 63ZM103.5 61H104.5C104.5 60.165 104.461 59.4722 104.405 58.9024L103.41 59L102.415 59.0976C102.464 59.5996 102.5 60.2271 102.5 61H103.5ZM103.41 59V60H105V59V58H103.41V59Z" fill="white" mask="url(#path-16-outside-2_92_2191)"/>
<mask id="path-18-outside-3_92_2191" maskUnits="userSpaceOnUse" x="15" y="41" width="89" height="41" fill="black">
<rect fill="white" x="15" y="41" width="89" height="41"/>
<path d="M25.5264 43C22.6393 48.3577 21 54.4873 21 61C21 67.9215 22.8507 74.4107 26.084 80H21.5352C18.6358 74.2943 17 67.8384 17 61C17 54.5581 18.4521 48.4557 21.0439 43H25.5264ZM100.812 65C100.305 70.3566 98.7922 75.42 96.4648 80H91.916C94.5182 75.5016 96.2239 70.4203 96.791 65H100.812ZM96.9561 43C99.0051 47.3131 100.341 52.0304 100.811 57H96.791C96.2653 51.9775 94.7618 47.2463 92.4736 43H96.9561Z"/>
</mask>
<path d="M25.5264 43L27.287 43.9488L28.876 41H25.5264V43ZM26.084 80V82H29.5515L27.8152 78.9985L26.084 80ZM21.5352 80L19.7522 80.906L20.3081 82H21.5352V80ZM21.0439 43V41H19.7799L19.2374 42.1418L21.0439 43ZM100.812 65L102.803 65.1883L103.01 63H100.812V65ZM96.4648 80V82H97.6919L98.2478 80.906L96.4648 80ZM91.916 80L90.1848 78.9985L88.4485 82H91.916V80ZM96.791 65V63H94.9893L94.8019 64.7919L96.791 65ZM96.9561 43L98.7626 42.1418L98.2201 41H96.9561V43ZM100.811 57V59H103.009L102.802 56.8117L100.811 57ZM96.791 57L94.8019 57.2082L94.9894 59H96.791V57ZM92.4736 43V41H89.124L90.713 43.9488L92.4736 43ZM25.5264 43L23.7657 42.0512C20.7255 47.6931 19 54.1478 19 61H21H23C23 54.8268 24.553 49.0223 27.287 43.9488L25.5264 43ZM21 61H19C19 68.2825 20.9482 75.116 24.3528 81.0015L26.084 80L27.8152 78.9985C24.7532 73.7054 23 67.5605 23 61H21ZM26.084 80V78H21.5352V80V82H26.084V80ZM21.5352 80L23.3182 79.094C20.558 73.6622 19 67.516 19 61H17H15C15 68.1608 16.7136 74.9264 19.7522 80.906L21.5352 80ZM17 61H19C19 54.8616 20.3831 49.0519 22.8504 43.8582L21.0439 43L19.2374 42.1418C16.521 47.8596 15 54.2546 15 61H17ZM21.0439 43V45H25.5264V43V41H21.0439V43ZM100.812 65L98.8204 64.8117C98.3381 69.9129 96.8977 74.7333 94.6818 79.094L96.4648 80L98.2478 80.906C100.687 76.1067 102.272 70.8003 102.803 65.1883L100.812 65ZM96.4648 80V78H91.916V80V82H96.4648V80ZM91.916 80L93.6472 81.0015C96.387 76.2653 98.1831 70.9144 98.7802 65.2081L96.791 65L94.8019 64.7919C94.2647 69.9263 92.6494 74.738 90.1848 78.9985L91.916 80ZM96.791 65V67H100.812V65V63H96.791V65ZM96.9561 43L95.1496 43.8582C97.1003 47.9644 98.3718 52.4553 98.8194 57.1883L100.811 57L102.802 56.8117C102.309 51.6055 100.91 46.6618 98.7626 42.1418L96.9561 43ZM100.811 57V55H96.791V57V59H100.811V57ZM96.791 57L98.7802 56.7918C98.2268 51.5045 96.6436 46.5223 94.2343 42.0512L92.4736 43L90.713 43.9488C92.8801 47.9703 94.3039 52.4506 94.8019 57.2082L96.791 57ZM92.4736 43V45H96.9561V43V41H92.4736V43Z" fill="white" mask="url(#path-18-outside-3_92_2191)"/>
</svg>
