<svg width="120" height="120" viewBox="0 0 120 120" fill="none" xmlns="http://www.w3.org/2000/svg">
<rect width="120" height="120" rx="10" fill="#139BD7"/>
<path d="M51 68V71C51 71.5523 50.5523 72 50 72H21C20.4477 72 20 71.5523 20 71V68H51Z" stroke="white" stroke-width="2"/>
<path d="M46 72V76C46 76.5523 45.5523 77 45 77H27C26.4477 77 26 76.5523 26 76V72H46Z" stroke="white" stroke-width="2"/>
<circle cx="74.5" cy="35.5" r="6.5" stroke="white" stroke-width="2"/>
<circle cx="74.5" cy="35.5" r="3" stroke="white"/>
<rect x="51.364" y="32.3345" width="22" height="6" rx="1" transform="rotate(45 51.364 32.3345)" stroke="white" stroke-width="2"/>
<path d="M58.435 47.8909L54.1924 52.1335C53.8019 52.524 53.1687 52.524 52.7782 52.1335L47.1213 46.4766C46.7308 46.0861 46.7308 45.453 47.1213 45.0624L51.364 40.8198L58.435 47.8909Z" stroke="white" stroke-width="2"/>
<rect x="78.9411" y="16.7782" width="5" height="5" transform="rotate(45 78.9411 16.7782)" stroke="white"/>
<mask id="path-9-inside-1_89_2099" fill="white">
<rect x="80.3553" y="9" width="14" height="7" rx="1" transform="rotate(45 80.3553 9)"/>
</mask>
<rect x="80.3553" y="9" width="14" height="7" rx="1" transform="rotate(45 80.3553 9)" stroke="white" stroke-width="4" mask="url(#path-9-inside-1_89_2099)"/>
<path d="M43.3066 99H82.6611C83.4131 99 84.1019 99.4218 84.4434 100.092L85.7168 102.592C86.3947 103.922 85.4279 105.5 83.9346 105.5H41.9824C40.4756 105.5 39.51 103.896 40.2148 102.564L41.5391 100.064C41.8857 99.4097 42.5658 99 43.3066 99Z" stroke="white" stroke-width="2" stroke-linejoin="round"/>
<path d="M40.5 103H85M57 99C57 99 58 86.5 63.5 86.5C69 86.5 70.5 99 70.5 99" stroke="white" stroke-linejoin="round"/>
<circle cx="63.5" cy="93.5" r="3" stroke="white"/>
<mask id="path-13-inside-2_89_2099" fill="white">
<path d="M39.043 77.5C43.2815 84.4879 50.4908 89.4722 58.9189 90.7031C58.2494 92.2766 57.8003 94.0445 57.5059 95.543C46.8621 93.759 37.9458 86.881 33.3496 77.5H39.043ZM81.8242 35.8945C90.3914 41.8555 96 51.772 96 63C96 78.8957 84.7607 92.1638 69.7959 95.2969C69.4293 93.7946 68.9002 92.0557 68.1631 90.5225C81.1605 88.0994 91 76.6999 91 63C91 53.6291 86.3959 45.3344 79.3271 40.252L80.2373 39.4189C80.6961 38.9984 81.0347 38.463 81.2178 37.8682L81.8242 35.8945Z"/>
</mask>
<path d="M39.043 77.5L39.898 76.9814L39.606 76.5H39.043V77.5ZM58.9189 90.7031L59.8391 91.0947L60.347 89.9011L59.0635 89.7136L58.9189 90.7031ZM57.5059 95.543L57.3406 96.5292L58.2996 96.69L58.4871 95.7358L57.5059 95.543ZM33.3496 77.5V76.5H31.7461L32.4516 77.94L33.3496 77.5ZM81.8242 35.8945L82.3954 35.0737L81.2707 34.2912L80.8683 35.6008L81.8242 35.8945ZM69.7959 95.2969L68.8244 95.534L69.0538 96.4739L70.0008 96.2757L69.7959 95.2969ZM68.1631 90.5225L67.9798 89.5394L66.6959 89.7787L67.2618 90.9558L68.1631 90.5225ZM79.3271 40.252L78.652 39.5143L77.744 40.3453L78.7434 41.0639L79.3271 40.252ZM80.2373 39.4189L80.9125 40.1566L80.9131 40.1561L80.2373 39.4189ZM81.2178 37.8682L82.1736 38.1622L82.1737 38.1619L81.2178 37.8682ZM39.043 77.5L38.188 78.0186C42.5765 85.2539 50.0423 90.4173 58.7744 91.6926L58.9189 90.7031L59.0635 89.7136C50.9393 88.5271 43.9864 83.7218 39.898 76.9814L39.043 77.5ZM58.9189 90.7031L57.9988 90.3116C57.291 91.9747 56.8257 93.8179 56.5246 95.3502L57.5059 95.543L58.4871 95.7358C58.7749 94.2712 59.2077 92.5785 59.8391 91.0947L58.9189 90.7031ZM57.5059 95.543L57.6712 94.5567C47.3529 92.8273 38.7054 86.1583 34.2476 77.06L33.3496 77.5L32.4516 77.94C37.1863 87.6036 46.3712 94.6906 57.3406 96.5292L57.5059 95.543ZM33.3496 77.5V78.5H39.043V77.5V76.5H33.3496V77.5ZM81.8242 35.8945L81.2531 36.7154C89.5632 42.4975 95 52.1133 95 63H96H97C97 51.4308 91.2196 41.2134 82.3954 35.0737L81.8242 35.8945ZM96 63H95C95 78.4127 84.1021 91.28 69.591 94.3181L69.7959 95.2969L70.0008 96.2757C85.4193 93.0476 97 79.3786 97 63H96ZM69.7959 95.2969L70.7674 95.0598C70.3925 93.5236 69.8437 91.7102 69.0643 90.0892L68.1631 90.5225L67.2618 90.9558C67.9568 92.4012 68.4661 94.0657 68.8244 95.534L69.7959 95.2969ZM68.1631 90.5225L68.3464 91.5055C81.8084 88.9959 92 77.1904 92 63H91H90C90 76.2094 80.5125 87.203 67.9798 89.5394L68.1631 90.5225ZM91 63H92C92 53.2936 87.2297 44.7023 79.9109 39.44L79.3271 40.252L78.7434 41.0639C85.5621 45.9666 90 53.9647 90 63H91ZM79.3271 40.252L80.0023 40.9896L80.9125 40.1566L80.2373 39.4189L79.5622 38.6813L78.652 39.5143L79.3271 40.252ZM80.2373 39.4189L80.9131 40.1561C81.5027 39.6155 81.9382 38.9273 82.1736 38.1622L81.2178 37.8682L80.262 37.5741C80.1313 37.9987 79.8894 38.3812 79.5616 38.6818L80.2373 39.4189ZM81.2178 37.8682L82.1737 38.1619L82.7801 36.1883L81.8242 35.8945L80.8683 35.6008L80.2619 37.5744L81.2178 37.8682Z" fill="white" mask="url(#path-13-inside-2_89_2099)"/>
<path d="M69.749 18.1921C71.311 16.6304 73.8432 16.6304 75.4053 18.1921L81.0625 23.8494L81.2051 23.9988C82.5775 25.5183 82.5777 27.8378 81.2051 29.3572L81.0625 29.5056L80.0791 30.488C79.631 29.9895 79.1159 29.5533 78.5498 29.1892L79.6484 28.0916C80.4292 27.3105 80.4293 26.0444 79.6484 25.2634L73.9912 19.6062C73.2589 18.8742 72.0999 18.8286 71.3145 19.4695L71.1631 19.6062L55.6064 35.1628L64.0918 43.6482L68.1895 39.5496C68.5535 40.1157 68.9898 40.6307 69.4883 41.0789L64.0918 46.4763L52.7783 35.1628L69.749 18.1921Z" fill="white"/>
</svg>
