<svg width="120" height="120" viewBox="0 0 120 120" fill="none" xmlns="http://www.w3.org/2000/svg">
<rect width="120" height="120" rx="10" fill="#139BD7"/>
<path d="M43.5 72H78" stroke="white" stroke-linecap="round"/>
<path d="M43 79H67" stroke="white" stroke-linecap="round"/>
<path d="M84.793 87.5L72.5 99.793V87.5H84.793Z" stroke="white" stroke-linecap="round" stroke-linejoin="round"/>
<mask id="path-5-inside-1_80_1937" fill="white">
<path d="M60.5 13C63.2038 13 65.5213 14.6512 66.501 17H73C74.1046 17 75 17.8954 75 19V28C75 29.1046 74.1046 30 73 30H48C46.8954 30 46 29.1046 46 28V19C46 17.8954 46.8954 17 48 17H54.499C55.4787 14.6512 57.7962 13 60.5 13Z"/>
</mask>
<path d="M66.501 17L64.6551 17.7699L65.1682 19H66.501V17ZM75 19H77V19H75ZM46 28H44V28H46ZM54.499 17V19H55.8318L56.3449 17.7699L54.499 17ZM60.5 13V15C62.3683 15 63.9751 16.1395 64.6551 17.7699L66.501 17L68.3469 16.2301C67.0676 13.1629 64.0393 11 60.5 11V13ZM66.501 17V19H73V17V15H66.501V17ZM73 17V19V19H75H77C77 16.7909 75.2091 15 73 15V17ZM75 19H73V28H75H77V19H75ZM75 28H73V30V32C75.2091 32 77 30.2091 77 28H75ZM73 30V28H48V30V32H73V30ZM48 30V28V28H46H44C44 30.2091 45.7909 32 48 32V30ZM46 28H48V19H46H44V28H46ZM46 19H48V17V15C45.7909 15 44 16.7909 44 19H46ZM48 17V19H54.499V17V15H48V17ZM54.499 17L56.3449 17.7699C57.0249 16.1395 58.6317 15 60.5 15V13V11C56.9607 11 53.9324 13.1629 52.6531 16.2301L54.499 17Z" fill="white" mask="url(#path-5-inside-1_80_1937)"/>
<path d="M78 54C78 55.0357 77.2128 55.887 76.2041 55.9893L76 56H45L44.7959 55.9893C43.8543 55.8938 43.1062 55.1457 43.0107 54.2041L43 54V26H46V27H44V54C44 54.5523 44.4477 55 45 55H76C76.5523 55 77 54.5523 77 54V27H75V26H78V54Z" fill="white"/>
<path d="M86 87L72 101H35V26H46V27H36V100H71.5859L85 86.5859V27H75V26H86V87Z" fill="white"/>
<path d="M86 20C89.3137 20 92 22.6863 92 26V101C92 104.314 89.3137 107 86 107H34C30.6863 107 28 104.314 28 101V26C28 22.6863 30.6863 20 34 20H46V22H34C31.7909 22 30 23.7909 30 26V101C30 103.209 31.7909 105 34 105H86C88.2091 105 90 103.209 90 101V26C90 23.7909 88.2091 22 86 22H75V20H86Z" fill="white"/>
<circle cx="60.5" cy="18.5" r="2" stroke="white"/>
<path d="M43.5 45.5H55.5L57.5 39L60 53L63 32.5L65.5 45.5H77.5" stroke="white" stroke-width="2" stroke-linejoin="round"/>
<circle cx="50.5" cy="24.5" r="1.5" fill="white"/>
<circle cx="54.5" cy="24.5" r="1.5" fill="white"/>
<circle cx="58.5" cy="24.5" r="1.5" fill="white"/>
<circle cx="62.5" cy="24.5" r="1.5" fill="white"/>
<circle cx="66.5" cy="24.5" r="1.5" fill="white"/>
<circle cx="70.5" cy="24.5" r="1.5" fill="white"/>
</svg>
