<svg width="120" height="120" viewBox="0 0 120 120" fill="none" xmlns="http://www.w3.org/2000/svg">
<rect width="120" height="120" rx="10" fill="#139BD7"/>
<rect x="20" y="12" width="76" height="51" rx="5" stroke="white" stroke-width="2"/>
<path d="M26.3535 74H90.0703C92.639 74.0001 94.7893 75.947 95.0449 78.5029L97.3457 101.503C97.6397 104.446 95.328 107 92.3701 107H23.7246C20.7385 107 18.418 104.399 18.7568 101.433L21.3857 78.4326C21.6744 75.9073 23.8118 74 26.3535 74Z" stroke="white" stroke-width="2" stroke-linecap="round" stroke-linejoin="round"/>
<path d="M19.5 101.5H97" stroke="white" stroke-width="2" stroke-linecap="round" stroke-linejoin="round"/>
<path d="M96.9799 88.4672C97.1137 88.376 97.6172 88.1013 98.0325 87.7218C98.4628 87.3285 98.8394 86.6066 99.116 85.953C99.375 85.3408 99.752 83.8107 99.9634 82.7069C100.131 81.8305 100.101 80.8945 100.179 76.701C100.204 75.3292 100.599 74.8078 100.955 74.3087C101.283 73.8482 101.805 73.5991 102.375 73.3395C102.914 73.0937 103.527 73.0347 104.132 72.9202C104.994 72.7571 105.99 71.852 106.428 71.4032C106.872 70.9483 107.011 70.2533 107.435 69.1612C107.955 67.8213 108.044 66.5982 108.123 65.7017C108.109 63.7907 108.026 63.2456 107.98 62.8872C107.962 62.664 107.952 62.3568 107.943 62.0402" stroke="white" stroke-width="2" stroke-linecap="round"/>
<path d="M26.5 63V74M90 63V74M27.5 19.5H34M27.5 23H34M27.5 27H34M49.5 19.5L30 39C30 39 39 53.5 58 53.5C77 53.5 86 39 86 39L67.5 19.5C67.5 19.5 62.5 21.5 58 21.5C53.5 21.5 49.5 19.5 49.5 19.5Z" stroke="white" stroke-linecap="round" stroke-linejoin="round"/>
<rect x="75" y="56" width="2" height="2" fill="white"/>
<rect x="79" y="56" width="2" height="2" fill="white"/>
<rect x="83" y="56" width="2" height="2" fill="white"/>
<rect x="87" y="56" width="2" height="2" fill="white"/>
<path d="M52 79.5C53.9978 79.5 55.5 80.9038 55.5 82.5C55.5 84.0962 53.9978 85.5 52 85.5C50.0022 85.5 48.5 84.0962 48.5 82.5C48.5 80.9038 50.0022 79.5 52 79.5Z" stroke="white"/>
<path d="M64 79.5C65.9978 79.5 67.5 80.9038 67.5 82.5C67.5 84.0962 65.9978 85.5 64 85.5C62.0022 85.5 60.5 84.0962 60.5 82.5C60.5 80.9038 62.0022 79.5 64 79.5Z" stroke="white"/>
<path d="M76 79.5C77.9978 79.5 79.5 80.9038 79.5 82.5C79.5 84.0962 77.9978 85.5 76 85.5C74.0022 85.5 72.5 84.0962 72.5 82.5C72.5 80.9038 74.0022 79.5 76 79.5Z" stroke="white"/>
<path d="M86 79.5C87.9978 79.5 89.5 80.9038 89.5 82.5C89.5 84.0962 87.9978 85.5 86 85.5C84.0022 85.5 82.5 84.0962 82.5 82.5C82.5 80.9038 84.0022 79.5 86 79.5Z" stroke="white"/>
<path d="M88 88.5C89.9978 88.5 91.5 89.9038 91.5 91.5C91.5 93.0962 89.9978 94.5 88 94.5C86.0022 94.5 84.5 93.0962 84.5 91.5C84.5 89.9038 86.0022 88.5 88 88.5Z" stroke="white"/>
<path d="M76 88.5C77.9978 88.5 79.5 89.9038 79.5 91.5C79.5 93.0962 77.9978 94.5 76 94.5C74.0022 94.5 72.5 93.0962 72.5 91.5C72.5 89.9038 74.0022 88.5 76 88.5Z" stroke="white"/>
<path d="M64 88.5C65.9978 88.5 67.5 89.9038 67.5 91.5C67.5 93.0962 65.9978 94.5 64 94.5C62.0022 94.5 60.5 93.0962 60.5 91.5C60.5 89.9038 62.0022 88.5 64 88.5Z" stroke="white"/>
<path d="M52 88.5C53.9978 88.5 55.5 89.9038 55.5 91.5C55.5 93.0962 53.9978 94.5 52 94.5C50.0022 94.5 48.5 93.0962 48.5 91.5C48.5 89.9038 50.0022 88.5 52 88.5Z" stroke="white"/>
<path d="M34.5 78.5C37.3599 78.5 39.5 80.38 39.5 82.5C39.5 84.62 37.3599 86.5 34.5 86.5C31.6401 86.5 29.5 84.62 29.5 82.5C29.5 80.38 31.6401 78.5 34.5 78.5Z" stroke="white"/>
<path d="M32.5 89.5C35.3599 89.5 37.5 91.38 37.5 93.5C37.5 95.62 35.3599 97.5 32.5 97.5C29.6401 97.5 27.5 95.62 27.5 93.5C27.5 91.38 29.6401 89.5 32.5 89.5Z" stroke="white"/>
<path d="M32.5 93.5L29.5 90.5M34.5 82.5L38 79.5" stroke="white" stroke-linejoin="round"/>
<path d="M104 41.5H111M101 37.5C101 37.5 102.5 35 107 35C111.5 35 113.5 37.5 113.5 37.5V49.8431C113.5 50.904 113.079 51.9214 112.328 52.6716L111.172 53.8284C110.421 54.5786 110 55.596 110 56.6569V60C110 60 109.5 62 107.5 62C105.5 62 105 60 105 60V56.8151C105 55.6616 104.502 54.5643 103.634 53.8048L102.366 52.6952C101.498 51.9357 101 50.8384 101 49.6849V37.5Z" stroke="white" stroke-width="2" stroke-linejoin="round"/>
</svg>
