<svg width="100" height="100" viewBox="0 0 100 100" fill="none" xmlns="http://www.w3.org/2000/svg">
<path d="M33.5 61H68" stroke="white" stroke-linecap="round"/>
<path d="M33 68H57" stroke="white" stroke-linecap="round"/>
<path d="M74.793 76.5L62.5 88.793V76.5H74.793Z" stroke="white" stroke-linecap="round" stroke-linejoin="round"/>
<mask id="path-4-inside-1_78_1892" fill="white">
<path d="M50.5 2C53.2038 2 55.5213 3.65121 56.501 6H63C64.1046 6 65 6.89543 65 8V17C65 18.1046 64.1046 19 63 19H38C36.8954 19 36 18.1046 36 17V8C36 6.89543 36.8954 6 38 6H44.499C45.4787 3.65121 47.7962 2 50.5 2Z"/>
</mask>
<path d="M56.501 6L55.578 6.38494L55.8346 7H56.501V6ZM65 8H66V8H65ZM36 17H35V17H36ZM44.499 6V7H45.1654L45.422 6.38494L44.499 6ZM50.5 2V3C52.7861 3 54.7482 4.39536 55.578 6.38494L56.501 6L57.4239 5.61506C56.2945 2.90706 53.6216 1 50.5 1V2ZM56.501 6V7H63V6V5H56.501V6ZM63 6V7C63.5523 7 64 7.44772 64 8H65H66C66 6.34315 64.6569 5 63 5V6ZM65 8H64V17H65H66V8H65ZM65 17H64C64 17.5523 63.5523 18 63 18V19V20C64.6569 20 66 18.6569 66 17H65ZM63 19V18H38V19V20H63V19ZM38 19V18C37.4477 18 37 17.5523 37 17H36H35C35 18.6569 36.3431 20 38 20V19ZM36 17H37V8H36H35V17H36ZM36 8H37C37 7.44772 37.4477 7 38 7V6V5C36.3431 5 35 6.34315 35 8H36ZM38 6V7H44.499V6V5H38V6ZM44.499 6L45.422 6.38494C46.2518 4.39536 48.2139 3 50.5 3V2V1C47.3784 1 44.7055 2.90706 43.5761 5.61506L44.499 6Z" fill="white" mask="url(#path-4-inside-1_78_1892)"/>
<path d="M68 43C68 44.0357 67.2128 44.887 66.2041 44.9893L66 45H35L34.7959 44.9893C33.8543 44.8938 33.1062 44.1457 33.0107 43.2041L33 43V15H36V16H34V43C34 43.5523 34.4477 44 35 44H66C66.5523 44 67 43.5523 67 43V16H65V15H68V43Z" fill="white"/>
<path d="M76 76L62 90H25V15H36V16H26V89H61.5859L75 75.5859V16H65V15H76V76Z" fill="white"/>
<path d="M76 9C79.3137 9 82 11.6863 82 15V90C82 93.3137 79.3137 96 76 96H24C20.6863 96 18 93.3137 18 90V15C18 11.6863 20.6863 9 24 9H36V10H24C21.2386 10 19 12.2386 19 15V90C19 92.7614 21.2386 95 24 95H76C78.7614 95 81 92.7614 81 90V15C81 12.2386 78.7614 10 76 10H65V9H76Z" fill="white"/>
<circle cx="50.5" cy="6.5" r="2" stroke="white"/>
<path d="M33.5 34.5H45.5L47.5 28L50 42L53 21.5L55.5 34.5H67.5" stroke="white" stroke-linecap="round" stroke-linejoin="round"/>
<circle cx="40.5" cy="13.5" r="1.5" fill="white"/>
<circle cx="44.5" cy="13.5" r="1.5" fill="white"/>
<circle cx="48.5" cy="13.5" r="1.5" fill="white"/>
<circle cx="52.5" cy="13.5" r="1.5" fill="white"/>
<circle cx="56.5" cy="13.5" r="1.5" fill="white"/>
<circle cx="60.5" cy="13.5" r="1.5" fill="white"/>
</svg>
