<svg width="18" height="18" viewBox="0 0 18 18" fill="none" xmlns="http://www.w3.org/2000/svg">
<path d="M3 5.46777L3 5.21135C3 4.37908 3.55953 3.65079 4.36369 3.43635L4.98116 3.27169C5.58669 3.11022 6.22671 3.36273 6.55885 3.89417L6.84259 4.34814C7.18018 4.88829 6.93144 5.60216 6.33127 5.81555C5.7603 6.01856 5.5011 6.67987 5.78205 7.2168L6.06462 7.75684C6.99565 9.53614 8.48578 10.96 10.3055 11.8093L10.9666 12.1178C11.5136 12.373 12.1601 12.0877 12.3401 11.5116C12.5423 10.8645 13.3174 10.6035 13.8698 10.9963L14.2627 11.2757C14.7086 11.5928 14.9184 12.1481 14.7936 12.6808L14.5638 13.6611C14.38 14.4454 13.6804 15 12.8748 15L12.7935 15C11.7707 15 10.7541 14.8413 9.77991 14.5296L9.56433 14.4606C6.69562 13.5426 4.43701 11.311 3.48453 8.4536C3.16361 7.49083 3 6.48262 3 5.46777Z" fill="#254858"/>
<path d="M9 6C10.4222 6.6131 11.1017 7.26529 12 9" stroke="#254858" stroke-linecap="round"/>
<path d="M9 3C12.3127 4.72547 13.5914 6.06074 15 9" stroke="#254858" stroke-linecap="round"/>
</svg>
